<svg xmlns="http://www.w3.org/2000/svg" xmlns:xlink="http://www.w3.org/1999/xlink" width="500" zoomAndPan="magnify" viewBox="0 0 375 374.999991" height="500" preserveAspectRatio="xMidYMid meet" version="1.0"><defs><g/><clipPath id="7cdfa249c4"><path d="M 115.128906 81 L 259.878906 81 L 259.878906 233 L 115.128906 233 Z M 115.128906 81 " clip-rule="nonzero"/></clipPath><clipPath id="7b63be7cb8"><path d="M 179 190 L 245 190 L 245 251.527344 L 179 251.527344 Z M 179 190 " clip-rule="nonzero"/></clipPath></defs><g clip-path="url(#7cdfa249c4)"><path fill="#2fadaa" d="M 233.746094 188.425781 C 241.3125 188.425781 247.472656 194.582031 247.472656 202.152344 C 247.472656 209.722656 241.3125 215.878906 233.746094 215.878906 C 226.175781 215.878906 220.019531 209.722656 220.019531 202.152344 C 220.019531 194.582031 226.175781 188.425781 233.746094 188.425781 Z M 198.683594 83.664062 C 192.5 86.40625 188.203125 90.984375 186.257812 96.898438 C 184.050781 103.625 184.734375 111.085938 188.179688 117.90625 C 189.910156 121.332031 192.113281 124.480469 194.410156 127.671875 C 196.648438 130.78125 199.054688 133.960938 201.554688 137.117188 C 201.648438 137.234375 201.757812 137.332031 201.878906 137.398438 C 208.257812 146.933594 211.625 158.054688 211.625 169.574219 C 211.625 176.363281 210.460938 183.007812 208.167969 189.332031 L 205.152344 189.332031 L 205.152344 153.285156 L 178.800781 153.285156 L 178.800781 189.332031 L 140.859375 189.332031 L 140.859375 216.375 L 178.800781 216.375 L 178.800781 221.808594 C 170.933594 225.605469 162.480469 227.527344 153.671875 227.527344 C 139.976562 227.527344 126.6875 222.660156 116.253906 213.828125 L 115.175781 214.898438 C 115.699219 215.527344 116.261719 216.160156 116.839844 216.785156 L 116.882812 216.828125 C 127.882812 226.945312 142.179688 232.519531 157.132812 232.519531 C 165.003906 232.519531 172.648438 231.003906 179.855469 228.023438 C 187.898438 224.695312 195.261719 219.515625 201.148438 213.046875 C 207.0625 206.542969 211.527344 198.683594 214.0625 190.316406 C 215.753906 184.742188 216.613281 178.925781 216.613281 173.035156 C 216.613281 158.710938 211.449219 144.875 202.070312 134.074219 C 199.625 130.9375 197.3125 127.832031 195.203125 124.84375 C 192.734375 121.355469 190.796875 118.359375 189.371094 115.074219 C 186.15625 107.699219 186.640625 99 190.597656 92.914062 C 193.464844 88.503906 199.039062 85.136719 205.507812 83.910156 C 211.429688 82.785156 218.457031 83.3125 224.789062 85.355469 C 239.058594 89.960938 247.101562 104.566406 250.628906 112.863281 C 255.988281 125.480469 258.035156 140.027344 256.550781 154.933594 C 255.570312 164.769531 252.300781 178.445312 242.324219 188.035156 C 239.824219 186.507812 236.882812 185.628906 233.746094 185.628906 C 224.632812 185.628906 217.222656 193.042969 217.222656 202.152344 C 217.222656 211.265625 224.632812 218.675781 233.746094 218.675781 C 242.855469 218.675781 250.269531 211.265625 250.269531 202.152344 C 250.269531 197.015625 247.914062 192.417969 244.222656 189.386719 C 245.222656 188.410156 246.160156 187.40625 247.007812 186.390625 C 254.421875 177.53125 258.636719 164.84375 259.199219 149.691406 C 259.800781 133.507812 256.523438 118.296875 249.726562 105.703125 C 246.195312 99.167969 241.921875 93.757812 237.011719 89.621094 C 231.878906 85.292969 225.652344 82.59375 218.503906 81.601562 C 210.84375 80.535156 204.175781 81.230469 198.683594 83.664062 " fill-opacity="1" fill-rule="nonzero"/></g><g clip-path="url(#7b63be7cb8)"><path fill="#057d7a" d="M 233.746094 191.625 C 227.929688 191.625 223.21875 196.339844 223.21875 202.152344 C 223.21875 207.96875 227.929688 212.679688 233.746094 212.679688 C 239.558594 212.679688 244.269531 207.96875 244.269531 202.152344 C 244.269531 196.339844 239.558594 191.625 233.746094 191.625 Z M 219.765625 190.09375 L 217.726562 190.09375 C 215.441406 199.738281 210.777344 208.460938 204.386719 215.609375 L 221.109375 215.609375 C 217.523438 212.242188 215.28125 207.457031 215.28125 202.152344 C 215.28125 197.542969 216.96875 193.332031 219.765625 190.09375 Z M 179.5625 251.65625 L 179.5625 232.085938 C 189.214844 228.789062 197.738281 223.054688 204.390625 215.613281 L 204.390625 251.65625 L 179.5625 251.65625 " fill-opacity="1" fill-rule="nonzero"/></g><path stroke-linecap="butt" transform="matrix(0.75, 0, 0, 0.75, 64.102318, 234.919175)" fill="none" stroke-linejoin="miter" d="M 31.88962 11.894226 L 31.88962 37.998394 L 25.842745 37.998394 L 25.842745 27.29006 L 13.988577 27.29006 L 13.988577 37.998394 L 7.941702 37.998394 L 7.941702 11.894226 L 13.988577 11.894226 L 13.988577 22.180685 L 25.842745 22.180685 L 25.842745 11.894226 Z M 58.290663 33.154644 L 58.290663 37.998394 L 38.07712 37.998394 L 38.07712 11.894226 L 57.811497 11.894226 L 57.811497 16.737976 L 44.077121 16.737976 L 44.077121 22.409852 L 56.20733 22.409852 L 56.20733 27.107768 L 44.077121 27.107768 L 44.077121 33.154644 Z M 80.295873 32.409852 L 68.176081 32.409852 L 65.86358 37.998394 L 59.670872 37.998394 L 71.306289 11.894226 L 77.269831 11.894226 L 88.946915 37.998394 L 82.608373 37.998394 Z M 78.389623 27.82131 L 74.259414 17.82131 L 70.113581 27.82131 Z M 91.670874 11.894226 L 97.717749 11.894226 L 97.717749 33.071311 L 110.806292 33.071311 L 110.806292 37.998394 L 91.670874 37.998394 Z M 119.608376 16.810893 L 111.249 16.810893 L 111.249 11.894226 L 134.00421 11.894226 L 134.00421 16.810893 L 125.644834 16.810893 L 125.644834 37.998394 L 119.608376 37.998394 Z M 161.19692 11.894226 L 161.19692 37.998394 L 155.150045 37.998394 L 155.150045 27.29006 L 143.295877 27.29006 L 143.295877 37.998394 L 137.249002 37.998394 L 137.249002 11.894226 L 143.295877 11.894226 L 143.295877 22.180685 L 155.150045 22.180685 L 155.150045 11.894226 Z M 190.431297 38.446311 C 187.775047 38.446311 185.368797 37.868186 183.212547 36.717144 C 181.061505 35.555686 179.368796 33.951519 178.13963 31.899435 C 176.910463 29.847352 176.301088 27.529644 176.301088 24.941102 C 176.301088 22.35256 176.910463 20.04006 178.13963 17.993185 C 179.368796 15.941101 181.061505 14.336934 183.212547 13.185893 C 185.368797 12.024434 187.785463 11.446309 190.467755 11.446309 C 192.73338 11.446309 194.780256 11.842142 196.608381 12.639018 C 198.436506 13.435893 199.967756 14.576518 201.212548 16.071309 L 197.337547 19.649435 C 195.566714 17.612976 193.379214 16.592143 190.769839 16.592143 C 189.155255 16.592143 187.712547 16.946309 186.441713 17.654643 C 185.176088 18.362976 184.186505 19.347351 183.472963 20.618185 C 182.76463 21.88381 182.410463 23.326518 182.410463 24.941102 C 182.410463 26.560893 182.76463 28.00881 183.472963 29.274435 C 184.186505 30.54006 185.176088 31.524435 186.441713 32.237977 C 187.712547 32.946311 189.155255 33.300477 190.769839 33.300477 C 193.379214 33.300477 195.566714 32.269227 197.337547 30.206727 L 201.212548 33.784852 C 199.967756 35.300477 198.426089 36.456727 196.587547 37.253602 C 194.749006 38.050478 192.696922 38.446311 190.431297 38.446311 Z M 222.467757 32.409852 L 210.347965 32.409852 L 208.035465 37.998394 L 201.842756 37.998394 L 213.483382 11.894226 L 219.446924 11.894226 L 231.1188 37.998394 L 224.785466 37.998394 Z M 220.566716 27.82131 L 216.431299 17.82131 L 212.290673 27.82131 Z M 250.483384 37.998394 L 245.446926 30.722352 L 239.894842 30.722352 L 239.894842 37.998394 L 233.847967 37.998394 L 233.847967 11.894226 L 245.150051 11.894226 C 247.462551 11.894226 249.467759 12.279643 251.165676 13.050476 C 252.874009 13.821309 254.18651 14.915059 255.103176 16.336934 C 256.025051 17.748393 256.483385 19.425476 256.483385 21.362976 C 256.483385 23.305685 256.019843 24.982768 255.082343 26.389018 C 254.15526 27.79006 252.832343 28.862977 251.113593 29.60256 L 256.96776 37.998394 Z M 250.363593 21.362976 C 250.363593 19.899435 249.889634 18.774435 248.946926 17.993185 C 248.004217 17.201518 246.624009 16.810893 244.811509 16.810893 L 239.894842 16.810893 L 239.894842 25.91506 L 244.811509 25.91506 C 246.624009 25.91506 248.004217 25.519227 248.946926 24.722352 C 249.889634 23.925477 250.363593 22.805685 250.363593 21.362976 Z M 281.478178 33.154644 L 281.478178 37.998394 L 261.259427 37.998394 L 261.259427 11.894226 L 280.993803 11.894226 L 280.993803 16.737976 L 267.259427 16.737976 L 267.259427 22.409852 L 279.389636 22.409852 L 279.389636 27.107768 L 267.259427 27.107768 L 267.259427 33.154644 Z M 314.035472 32.409852 L 301.910471 32.409852 L 299.597971 37.998394 L 293.405262 37.998394 L 305.045888 11.894226 L 311.00943 11.894226 L 322.686514 37.998394 L 316.347972 37.998394 Z M 312.129222 27.82131 L 307.993805 17.82131 L 303.853179 27.82131 Z M 344.57714 24.420268 C 346.071932 24.894227 347.243807 25.685893 348.087557 26.79006 C 348.936516 27.894227 349.358391 29.25881 349.358391 30.878602 C 349.358391 33.159852 348.472974 34.920269 346.691724 36.149436 C 344.915682 37.383811 342.321932 37.998394 338.915682 37.998394 L 325.410473 37.998394 L 325.410473 11.894226 L 338.165682 11.894226 C 341.347974 11.894226 343.790682 12.503601 345.488599 13.722351 C 347.196932 14.935893 348.051099 16.586934 348.051099 18.675476 C 348.051099 19.94631 347.743807 21.076518 347.139641 22.07131 C 346.530266 23.066102 345.676099 23.85256 344.57714 24.420268 Z M 331.410473 16.446309 L 331.410473 22.592143 L 337.42089 22.592143 C 338.915682 22.592143 340.04589 22.331727 340.816724 21.810893 C 341.587557 21.284851 341.972974 20.514018 341.972974 19.493185 C 341.972974 18.47756 341.587557 17.711935 340.816724 17.211934 C 340.04589 16.701518 338.915682 16.446309 337.42089 16.446309 Z M 338.467765 33.446311 C 340.061515 33.446311 341.259432 33.185894 342.066724 32.665061 C 342.874015 32.139019 343.275057 31.331727 343.275057 30.243185 C 343.275057 28.081727 341.676099 26.998393 338.467765 26.998393 L 331.410473 26.998393 L 331.410473 33.446311 Z M 338.467765 33.446311 " stroke="#d5f1f0" stroke-width="2.798025" stroke-opacity="1" stroke-miterlimit="4"/><g fill="#057d7a" fill-opacity="1"><g transform="translate(67.73513, 263.419173)"><g><path d="M 20.28125 -19.578125 L 20.28125 0 L 15.75 0 L 15.75 -8.03125 L 6.859375 -8.03125 L 6.859375 0 L 2.328125 0 L 2.328125 -19.578125 L 6.859375 -19.578125 L 6.859375 -11.859375 L 15.75 -11.859375 L 15.75 -19.578125 Z M 20.28125 -19.578125 "/></g></g></g><g fill="#057d7a" fill-opacity="1"><g transform="translate(90.33697, 263.419173)"><g><path d="M 17.484375 -3.640625 L 17.484375 0 L 2.328125 0 L 2.328125 -19.578125 L 17.109375 -19.578125 L 17.109375 -15.9375 L 6.828125 -15.9375 L 6.828125 -11.6875 L 15.921875 -11.6875 L 15.921875 -8.171875 L 6.828125 -8.171875 L 6.828125 -3.640625 Z M 17.484375 -3.640625 "/></g></g></g><g fill="#057d7a" fill-opacity="1"><g transform="translate(109.106572, 263.419173)"><g><path d="M 15.21875 -4.1875 L 6.125 -4.1875 L 4.390625 0 L -0.25 0 L 8.46875 -19.578125 L 12.953125 -19.578125 L 21.703125 0 L 16.953125 0 Z M 13.78125 -7.640625 L 10.6875 -15.125 L 7.578125 -7.640625 Z M 13.78125 -7.640625 "/></g></g></g><g fill="#057d7a" fill-opacity="1"><g transform="translate(130.533561, 263.419173)"><g><path d="M 2.328125 -19.578125 L 6.859375 -19.578125 L 6.859375 -3.6875 L 16.671875 -3.6875 L 16.671875 0 L 2.328125 0 Z M 2.328125 -19.578125 "/></g></g></g><g fill="#057d7a" fill-opacity="1"><g transform="translate(147.428999, 263.419173)"><g><path d="M 6.375 -15.890625 L 0.109375 -15.890625 L 0.109375 -19.578125 L 17.171875 -19.578125 L 17.171875 -15.890625 L 10.90625 -15.890625 L 10.90625 0 L 6.375 0 Z M 6.375 -15.890625 "/></g></g></g><g fill="#057d7a" fill-opacity="1"><g transform="translate(164.716054, 263.419173)"><g><path d="M 20.28125 -19.578125 L 20.28125 0 L 15.75 0 L 15.75 -8.03125 L 6.859375 -8.03125 L 6.859375 0 L 2.328125 0 L 2.328125 -19.578125 L 6.859375 -19.578125 L 6.859375 -11.859375 L 15.75 -11.859375 L 15.75 -19.578125 Z M 20.28125 -19.578125 "/></g></g></g><g fill="#057d7a" fill-opacity="1"><g transform="translate(187.317894, 263.419173)"><g/></g></g><g fill="#057d7a" fill-opacity="1"><g transform="translate(195.234138, 263.419173)"><g><path d="M 11.6875 0.328125 C 9.695312 0.328125 7.894531 -0.101562 6.28125 -0.96875 C 4.664062 -1.832031 3.394531 -3.03125 2.46875 -4.5625 C 1.550781 -6.101562 1.09375 -7.84375 1.09375 -9.78125 C 1.09375 -11.726562 1.550781 -13.46875 2.46875 -15 C 3.394531 -16.539062 4.664062 -17.742188 6.28125 -18.609375 C 7.894531 -19.472656 9.707031 -19.90625 11.71875 -19.90625 C 13.414062 -19.90625 14.945312 -19.609375 16.3125 -19.015625 C 17.6875 -18.421875 18.84375 -17.566406 19.78125 -16.453125 L 16.859375 -13.765625 C 15.535156 -15.285156 13.894531 -16.046875 11.9375 -16.046875 C 10.726562 -16.046875 9.644531 -15.78125 8.6875 -15.25 C 7.738281 -14.71875 7 -13.976562 6.46875 -13.03125 C 5.9375 -12.082031 5.671875 -11 5.671875 -9.78125 C 5.671875 -8.570312 5.9375 -7.492188 6.46875 -6.546875 C 7 -5.597656 7.738281 -4.859375 8.6875 -4.328125 C 9.644531 -3.796875 10.726562 -3.53125 11.9375 -3.53125 C 13.894531 -3.53125 15.535156 -4.300781 16.859375 -5.84375 L 19.78125 -3.15625 C 18.84375 -2.019531 17.679688 -1.15625 16.296875 -0.5625 C 14.921875 0.03125 13.382812 0.328125 11.6875 0.328125 Z M 11.6875 0.328125 "/></g></g></g><g fill="#057d7a" fill-opacity="1"><g transform="translate(215.738034, 263.419173)"><g><path d="M 15.21875 -4.1875 L 6.125 -4.1875 L 4.390625 0 L -0.25 0 L 8.46875 -19.578125 L 12.953125 -19.578125 L 21.703125 0 L 16.953125 0 Z M 13.78125 -7.640625 L 10.6875 -15.125 L 7.578125 -7.640625 Z M 13.78125 -7.640625 "/></g></g></g><g fill="#057d7a" fill-opacity="1"><g transform="translate(237.165024, 263.419173)"><g><path d="M 14.796875 0 L 11.015625 -5.453125 L 6.859375 -5.453125 L 6.859375 0 L 2.328125 0 L 2.328125 -19.578125 L 10.796875 -19.578125 C 12.523438 -19.578125 14.03125 -19.285156 15.3125 -18.703125 C 16.59375 -18.128906 17.578125 -17.3125 18.265625 -16.25 C 18.953125 -15.1875 19.296875 -13.925781 19.296875 -12.46875 C 19.296875 -11.019531 18.945312 -9.765625 18.25 -8.703125 C 17.550781 -7.648438 16.554688 -6.847656 15.265625 -6.296875 L 19.65625 0 Z M 14.71875 -12.46875 C 14.71875 -13.570312 14.359375 -14.414062 13.640625 -15 C 12.929688 -15.59375 11.898438 -15.890625 10.546875 -15.890625 L 6.859375 -15.890625 L 6.859375 -9.0625 L 10.546875 -9.0625 C 11.898438 -9.0625 12.929688 -9.359375 13.640625 -9.953125 C 14.359375 -10.554688 14.71875 -11.394531 14.71875 -12.46875 Z M 14.71875 -12.46875 "/></g></g></g><g fill="#057d7a" fill-opacity="1"><g transform="translate(257.724871, 263.419173)"><g><path d="M 17.484375 -3.640625 L 17.484375 0 L 2.328125 0 L 2.328125 -19.578125 L 17.109375 -19.578125 L 17.109375 -15.9375 L 6.828125 -15.9375 L 6.828125 -11.6875 L 15.921875 -11.6875 L 15.921875 -8.171875 L 6.828125 -8.171875 L 6.828125 -3.640625 Z M 17.484375 -3.640625 "/></g></g></g><g fill="#057d7a" fill-opacity="1"><g transform="translate(276.494486, 263.419173)"><g/></g></g><g fill="#057d7a" fill-opacity="1"><g transform="translate(284.41073, 263.419173)"><g><path d="M 15.21875 -4.1875 L 6.125 -4.1875 L 4.390625 0 L -0.25 0 L 8.46875 -19.578125 L 12.953125 -19.578125 L 21.703125 0 L 16.953125 0 Z M 13.78125 -7.640625 L 10.6875 -15.125 L 7.578125 -7.640625 Z M 13.78125 -7.640625 "/></g></g></g><g fill="#057d7a" fill-opacity="1"><g transform="translate(305.83773, 263.419173)"><g><path d="M 16.703125 -10.1875 C 17.816406 -9.832031 18.691406 -9.238281 19.328125 -8.40625 C 19.960938 -7.570312 20.28125 -6.550781 20.28125 -5.34375 C 20.28125 -3.625 19.613281 -2.300781 18.28125 -1.375 C 16.945312 -0.457031 15.003906 0 12.453125 0 L 2.328125 0 L 2.328125 -19.578125 L 11.890625 -19.578125 C 14.273438 -19.578125 16.101562 -19.117188 17.375 -18.203125 C 18.65625 -17.296875 19.296875 -16.054688 19.296875 -14.484375 C 19.296875 -13.535156 19.066406 -12.6875 18.609375 -11.9375 C 18.148438 -11.195312 17.515625 -10.613281 16.703125 -10.1875 Z M 6.828125 -16.171875 L 6.828125 -11.546875 L 11.328125 -11.546875 C 12.441406 -11.546875 13.285156 -11.738281 13.859375 -12.125 C 14.441406 -12.519531 14.734375 -13.101562 14.734375 -13.875 C 14.734375 -14.632812 14.441406 -15.207031 13.859375 -15.59375 C 13.285156 -15.976562 12.441406 -16.171875 11.328125 -16.171875 Z M 12.109375 -3.40625 C 13.304688 -3.40625 14.207031 -3.601562 14.8125 -4 C 15.414062 -4.394531 15.71875 -5 15.71875 -5.8125 C 15.71875 -7.4375 14.515625 -8.25 12.109375 -8.25 L 6.828125 -8.25 L 6.828125 -3.40625 Z M 12.109375 -3.40625 "/></g></g></g><g fill="#057d7a" fill-opacity="1"><g transform="translate(111.280734, 291.88627)"><g><path d="M 8.375 0 L 8.359375 -4.875 L 5.96875 -0.859375 L 5.109375 -0.859375 L 2.734375 -4.78125 L 2.734375 0 L 0.96875 0 L 0.96875 -8.140625 L 2.515625 -8.140625 L 5.5625 -3.078125 L 8.5625 -8.140625 L 10.109375 -8.140625 L 10.140625 0 Z M 8.375 0 "/></g></g></g><g fill="#057d7a" fill-opacity="1"><g transform="translate(127.023187, 291.88627)"><g><path d="M 6.96875 -3.109375 C 6.96875 -3.078125 6.953125 -2.910156 6.921875 -2.609375 L 2.203125 -2.609375 C 2.285156 -2.222656 2.484375 -1.914062 2.796875 -1.6875 C 3.117188 -1.46875 3.515625 -1.359375 3.984375 -1.359375 C 4.304688 -1.359375 4.59375 -1.40625 4.84375 -1.5 C 5.101562 -1.601562 5.34375 -1.757812 5.5625 -1.96875 L 6.515625 -0.921875 C 5.929688 -0.242188 5.070312 0.09375 3.9375 0.09375 C 3.238281 0.09375 2.613281 -0.0390625 2.0625 -0.3125 C 1.519531 -0.59375 1.101562 -0.976562 0.8125 -1.46875 C 0.519531 -1.957031 0.375 -2.507812 0.375 -3.125 C 0.375 -3.738281 0.519531 -4.289062 0.8125 -4.78125 C 1.101562 -5.269531 1.5 -5.648438 2 -5.921875 C 2.507812 -6.203125 3.078125 -6.34375 3.703125 -6.34375 C 4.316406 -6.34375 4.867188 -6.210938 5.359375 -5.953125 C 5.859375 -5.691406 6.25 -5.3125 6.53125 -4.8125 C 6.820312 -4.320312 6.96875 -3.753906 6.96875 -3.109375 Z M 3.71875 -4.96875 C 3.3125 -4.96875 2.96875 -4.851562 2.6875 -4.625 C 2.40625 -4.394531 2.234375 -4.078125 2.171875 -3.671875 L 5.25 -3.671875 C 5.1875 -4.066406 5.015625 -4.378906 4.734375 -4.609375 C 4.460938 -4.847656 4.125 -4.96875 3.71875 -4.96875 Z M 3.71875 -4.96875 "/></g></g></g><g fill="#057d7a" fill-opacity="1"><g transform="translate(138.999127, 291.88627)"><g><path d="M 7.203125 -8.625 L 7.203125 0 L 5.46875 0 L 5.46875 -0.71875 C 5.019531 -0.175781 4.367188 0.09375 3.515625 0.09375 C 2.929688 0.09375 2.398438 -0.0351562 1.921875 -0.296875 C 1.441406 -0.566406 1.066406 -0.941406 0.796875 -1.421875 C 0.523438 -1.910156 0.390625 -2.476562 0.390625 -3.125 C 0.390625 -3.769531 0.523438 -4.335938 0.796875 -4.828125 C 1.066406 -5.316406 1.441406 -5.691406 1.921875 -5.953125 C 2.398438 -6.210938 2.929688 -6.34375 3.515625 -6.34375 C 4.316406 -6.34375 4.941406 -6.09375 5.390625 -5.59375 L 5.390625 -8.625 Z M 3.84375 -1.390625 C 4.289062 -1.390625 4.664062 -1.546875 4.96875 -1.859375 C 5.269531 -2.179688 5.421875 -2.601562 5.421875 -3.125 C 5.421875 -3.65625 5.269531 -4.078125 4.96875 -4.390625 C 4.664062 -4.703125 4.289062 -4.859375 3.84375 -4.859375 C 3.375 -4.859375 2.988281 -4.703125 2.6875 -4.390625 C 2.382812 -4.078125 2.234375 -3.65625 2.234375 -3.125 C 2.234375 -2.601562 2.382812 -2.179688 2.6875 -1.859375 C 2.988281 -1.546875 3.375 -1.390625 3.84375 -1.390625 Z M 3.84375 -1.390625 "/></g></g></g><g fill="#057d7a" fill-opacity="1"><g transform="translate(151.684189, 291.88627)"><g><path d="M 0.84375 -6.25 L 2.65625 -6.25 L 2.65625 0 L 0.84375 0 Z M 1.75 -7.125 C 1.414062 -7.125 1.144531 -7.21875 0.9375 -7.40625 C 0.726562 -7.601562 0.625 -7.847656 0.625 -8.140625 C 0.625 -8.421875 0.726562 -8.660156 0.9375 -8.859375 C 1.144531 -9.054688 1.414062 -9.15625 1.75 -9.15625 C 2.082031 -9.15625 2.351562 -9.0625 2.5625 -8.875 C 2.769531 -8.6875 2.875 -8.453125 2.875 -8.171875 C 2.875 -7.867188 2.769531 -7.617188 2.5625 -7.421875 C 2.351562 -7.222656 2.082031 -7.125 1.75 -7.125 Z M 1.75 -7.125 "/></g></g></g><g fill="#057d7a" fill-opacity="1"><g transform="translate(159.823862, 291.88627)"><g><path d="M 3.859375 0.09375 C 3.191406 0.09375 2.59375 -0.0390625 2.0625 -0.3125 C 1.53125 -0.59375 1.113281 -0.976562 0.8125 -1.46875 C 0.519531 -1.957031 0.375 -2.507812 0.375 -3.125 C 0.375 -3.75 0.519531 -4.300781 0.8125 -4.78125 C 1.113281 -5.269531 1.53125 -5.648438 2.0625 -5.921875 C 2.59375 -6.203125 3.191406 -6.34375 3.859375 -6.34375 C 4.515625 -6.34375 5.085938 -6.203125 5.578125 -5.921875 C 6.078125 -5.648438 6.4375 -5.257812 6.65625 -4.75 L 5.25 -4 C 4.925781 -4.570312 4.457031 -4.859375 3.84375 -4.859375 C 3.375 -4.859375 2.984375 -4.703125 2.671875 -4.390625 C 2.359375 -4.078125 2.203125 -3.65625 2.203125 -3.125 C 2.203125 -2.59375 2.359375 -2.171875 2.671875 -1.859375 C 2.984375 -1.546875 3.375 -1.390625 3.84375 -1.390625 C 4.46875 -1.390625 4.9375 -1.675781 5.25 -2.25 L 6.65625 -1.484375 C 6.4375 -0.992188 6.078125 -0.609375 5.578125 -0.328125 C 5.085938 -0.046875 4.515625 0.09375 3.859375 0.09375 Z M 3.859375 0.09375 "/></g></g></g><g fill="#057d7a" fill-opacity="1"><g transform="translate(171.334792, 291.88627)"><g><path d="M 3.359375 -6.34375 C 4.328125 -6.34375 5.070312 -6.113281 5.59375 -5.65625 C 6.113281 -5.195312 6.375 -4.5 6.375 -3.5625 L 6.375 0 L 4.671875 0 L 4.671875 -0.78125 C 4.328125 -0.195312 3.691406 0.09375 2.765625 0.09375 C 2.285156 0.09375 1.867188 0.015625 1.515625 -0.140625 C 1.160156 -0.304688 0.890625 -0.53125 0.703125 -0.8125 C 0.523438 -1.101562 0.4375 -1.429688 0.4375 -1.796875 C 0.4375 -2.378906 0.65625 -2.835938 1.09375 -3.171875 C 1.53125 -3.503906 2.203125 -3.671875 3.109375 -3.671875 L 4.5625 -3.671875 C 4.5625 -4.066406 4.441406 -4.367188 4.203125 -4.578125 C 3.960938 -4.796875 3.597656 -4.90625 3.109375 -4.90625 C 2.773438 -4.90625 2.445312 -4.851562 2.125 -4.75 C 1.8125 -4.644531 1.539062 -4.503906 1.3125 -4.328125 L 0.65625 -5.59375 C 1 -5.832031 1.410156 -6.015625 1.890625 -6.140625 C 2.367188 -6.273438 2.859375 -6.34375 3.359375 -6.34375 Z M 3.21875 -1.125 C 3.53125 -1.125 3.804688 -1.195312 4.046875 -1.34375 C 4.285156 -1.488281 4.457031 -1.695312 4.5625 -1.96875 L 4.5625 -2.609375 L 3.3125 -2.609375 C 2.570312 -2.609375 2.203125 -2.367188 2.203125 -1.890625 C 2.203125 -1.648438 2.289062 -1.460938 2.46875 -1.328125 C 2.65625 -1.191406 2.90625 -1.125 3.21875 -1.125 Z M 3.21875 -1.125 "/></g></g></g><g fill="#057d7a" fill-opacity="1"><g transform="translate(183.147972, 291.88627)"><g><path d="M 0.84375 -8.625 L 2.65625 -8.625 L 2.65625 0 L 0.84375 0 Z M 0.84375 -8.625 "/></g></g></g><g fill="#057d7a" fill-opacity="1"><g transform="translate(191.287645, 291.88627)"><g/></g></g><g fill="#057d7a" fill-opacity="1"><g transform="translate(199.218063, 291.88627)"><g><path d="M 4.859375 0.140625 C 4.023438 0.140625 3.273438 -0.0351562 2.609375 -0.390625 C 1.941406 -0.753906 1.414062 -1.253906 1.03125 -1.890625 C 0.644531 -2.535156 0.453125 -3.257812 0.453125 -4.0625 C 0.453125 -4.875 0.644531 -5.597656 1.03125 -6.234375 C 1.414062 -6.878906 1.941406 -7.378906 2.609375 -7.734375 C 3.273438 -8.097656 4.03125 -8.28125 4.875 -8.28125 C 5.570312 -8.28125 6.207031 -8.15625 6.78125 -7.90625 C 7.351562 -7.65625 7.832031 -7.296875 8.21875 -6.828125 L 7.015625 -5.71875 C 6.460938 -6.351562 5.78125 -6.671875 4.96875 -6.671875 C 4.457031 -6.671875 4.003906 -6.5625 3.609375 -6.34375 C 3.210938 -6.125 2.90625 -5.816406 2.6875 -5.421875 C 2.46875 -5.023438 2.359375 -4.570312 2.359375 -4.0625 C 2.359375 -3.5625 2.46875 -3.113281 2.6875 -2.71875 C 2.90625 -2.320312 3.210938 -2.015625 3.609375 -1.796875 C 4.003906 -1.578125 4.457031 -1.46875 4.96875 -1.46875 C 5.78125 -1.46875 6.460938 -1.785156 7.015625 -2.421875 L 8.21875 -1.3125 C 7.832031 -0.84375 7.351562 -0.484375 6.78125 -0.234375 C 6.207031 0.015625 5.566406 0.140625 4.859375 0.140625 Z M 4.859375 0.140625 "/></g></g></g><g fill="#057d7a" fill-opacity="1"><g transform="translate(212.379757, 291.88627)"><g><path d="M 6.96875 -3.109375 C 6.96875 -3.078125 6.953125 -2.910156 6.921875 -2.609375 L 2.203125 -2.609375 C 2.285156 -2.222656 2.484375 -1.914062 2.796875 -1.6875 C 3.117188 -1.46875 3.515625 -1.359375 3.984375 -1.359375 C 4.304688 -1.359375 4.59375 -1.40625 4.84375 -1.5 C 5.101562 -1.601562 5.34375 -1.757812 5.5625 -1.96875 L 6.515625 -0.921875 C 5.929688 -0.242188 5.070312 0.09375 3.9375 0.09375 C 3.238281 0.09375 2.613281 -0.0390625 2.0625 -0.3125 C 1.519531 -0.59375 1.101562 -0.976562 0.8125 -1.46875 C 0.519531 -1.957031 0.375 -2.507812 0.375 -3.125 C 0.375 -3.738281 0.519531 -4.289062 0.8125 -4.78125 C 1.101562 -5.269531 1.5 -5.648438 2 -5.921875 C 2.507812 -6.203125 3.078125 -6.34375 3.703125 -6.34375 C 4.316406 -6.34375 4.867188 -6.210938 5.359375 -5.953125 C 5.859375 -5.691406 6.25 -5.3125 6.53125 -4.8125 C 6.820312 -4.320312 6.96875 -3.753906 6.96875 -3.109375 Z M 3.71875 -4.96875 C 3.3125 -4.96875 2.96875 -4.851562 2.6875 -4.625 C 2.40625 -4.394531 2.234375 -4.078125 2.171875 -3.671875 L 5.25 -3.671875 C 5.1875 -4.066406 5.015625 -4.378906 4.734375 -4.609375 C 4.460938 -4.847656 4.125 -4.96875 3.71875 -4.96875 Z M 3.71875 -4.96875 "/></g></g></g><g fill="#057d7a" fill-opacity="1"><g transform="translate(224.355701, 291.88627)"><g><path d="M 4.640625 -6.34375 C 5.410156 -6.34375 6.035156 -6.109375 6.515625 -5.640625 C 6.992188 -5.179688 7.234375 -4.492188 7.234375 -3.578125 L 7.234375 0 L 5.421875 0 L 5.421875 -3.296875 C 5.421875 -3.796875 5.3125 -4.164062 5.09375 -4.40625 C 4.875 -4.65625 4.5625 -4.78125 4.15625 -4.78125 C 3.695312 -4.78125 3.332031 -4.632812 3.0625 -4.34375 C 2.789062 -4.0625 2.65625 -3.644531 2.65625 -3.09375 L 2.65625 0 L 0.84375 0 L 0.84375 -6.25 L 2.5625 -6.25 L 2.5625 -5.515625 C 2.800781 -5.785156 3.097656 -5.988281 3.453125 -6.125 C 3.816406 -6.269531 4.210938 -6.34375 4.640625 -6.34375 Z M 4.640625 -6.34375 "/></g></g></g><g fill="#057d7a" fill-opacity="1"><g transform="translate(237.029139, 291.88627)"><g><path d="M 4.875 -0.296875 C 4.695312 -0.171875 4.476562 -0.0703125 4.21875 0 C 3.957031 0.0625 3.679688 0.09375 3.390625 0.09375 C 2.648438 0.09375 2.078125 -0.09375 1.671875 -0.46875 C 1.265625 -0.851562 1.0625 -1.414062 1.0625 -2.15625 L 1.0625 -4.71875 L 0.09375 -4.71875 L 0.09375 -6.109375 L 1.0625 -6.109375 L 1.0625 -7.640625 L 2.875 -7.640625 L 2.875 -6.109375 L 4.421875 -6.109375 L 4.421875 -4.71875 L 2.875 -4.71875 L 2.875 -2.171875 C 2.875 -1.910156 2.941406 -1.707031 3.078125 -1.5625 C 3.210938 -1.414062 3.40625 -1.34375 3.65625 -1.34375 C 3.9375 -1.34375 4.175781 -1.421875 4.375 -1.578125 Z M 4.875 -0.296875 "/></g></g></g><g fill="#057d7a" fill-opacity="1"><g transform="translate(246.726564, 291.88627)"><g><path d="M 6.96875 -3.109375 C 6.96875 -3.078125 6.953125 -2.910156 6.921875 -2.609375 L 2.203125 -2.609375 C 2.285156 -2.222656 2.484375 -1.914062 2.796875 -1.6875 C 3.117188 -1.46875 3.515625 -1.359375 3.984375 -1.359375 C 4.304688 -1.359375 4.59375 -1.40625 4.84375 -1.5 C 5.101562 -1.601562 5.34375 -1.757812 5.5625 -1.96875 L 6.515625 -0.921875 C 5.929688 -0.242188 5.070312 0.09375 3.9375 0.09375 C 3.238281 0.09375 2.613281 -0.0390625 2.0625 -0.3125 C 1.519531 -0.59375 1.101562 -0.976562 0.8125 -1.46875 C 0.519531 -1.957031 0.375 -2.507812 0.375 -3.125 C 0.375 -3.738281 0.519531 -4.289062 0.8125 -4.78125 C 1.101562 -5.269531 1.5 -5.648438 2 -5.921875 C 2.507812 -6.203125 3.078125 -6.34375 3.703125 -6.34375 C 4.316406 -6.34375 4.867188 -6.210938 5.359375 -5.953125 C 5.859375 -5.691406 6.25 -5.3125 6.53125 -4.8125 C 6.820312 -4.320312 6.96875 -3.753906 6.96875 -3.109375 Z M 3.71875 -4.96875 C 3.3125 -4.96875 2.96875 -4.851562 2.6875 -4.625 C 2.40625 -4.394531 2.234375 -4.078125 2.171875 -3.671875 L 5.25 -3.671875 C 5.1875 -4.066406 5.015625 -4.378906 4.734375 -4.609375 C 4.460938 -4.847656 4.125 -4.96875 3.71875 -4.96875 Z M 3.71875 -4.96875 "/></g></g></g><g fill="#057d7a" fill-opacity="1"><g transform="translate(258.702508, 291.88627)"><g><path d="M 2.5625 -5.421875 C 2.78125 -5.722656 3.070312 -5.953125 3.4375 -6.109375 C 3.8125 -6.265625 4.238281 -6.34375 4.71875 -6.34375 L 4.71875 -4.671875 C 4.519531 -4.691406 4.382812 -4.703125 4.3125 -4.703125 C 3.789062 -4.703125 3.382812 -4.554688 3.09375 -4.265625 C 2.800781 -3.972656 2.65625 -3.535156 2.65625 -2.953125 L 2.65625 0 L 0.84375 0 L 0.84375 -6.25 L 2.5625 -6.25 Z M 2.5625 -5.421875 "/></g></g></g></svg>